<svg xmlns="http://www.w3.org/2000/svg" viewBox="-0.1 -0.1 30.92 30.92">
  <path d="M 14.178 3.936 c 0.072 0 0.162 0.036 0.24 0.144 c -0.348 -0.498 0.39 -0.282 0.432 -0.756 c 0.42 -0.312 0.27 -0.516 0.39 -0.528 l 0.132 -0.108 c -0.258 0.096 -0.348 0.114 -0.42 0.114 h -0.12 c -0.09 0 -0.24 0.018 -0.594 0.126 c -0.81 0.06 -1.392 0.936 -1.668 0.96 c -0.282 0.15 -0.27 0.18 -0.204 0.18 c 0.018 0 0.042 -0.006 0.066 -0.006 s 0.042 -0.006 0.06 -0.006 c 0.066 0 0.048 0.03 -0.336 0.21 c 0.09 0.024 -0.672 0.36 -0.678 0.888 c -0.024 0.204 0.06 0.342 0.198 0.342 c 0.12 0 0.27 -0.09 0.432 -0.318 c 0.54 -0.624 1.68 -0.684 2.172 -1.062 c -0.306 -0.024 -0.246 -0.18 -0.102 -0.18 z m -2.742 0.21 c -0.054 0 0.018 -0.066 0.096 -0.132 a 4.08 4.08 0 0 1 0.18 -0.132 l -0.006 0.006 c 0.324 -0.126 0.126 -0.156 0.3 -0.24 h -0.012 c -0.036 0 0.03 -0.048 0.09 -0.102 c 0.06 -0.048 0.114 -0.102 0.06 -0.102 a 0.833 0.833 0 0 0 -0.24 0.072 c 0.042 -0.06 0.204 -0.102 0.432 -0.228 a 5.235 5.235 0 0 1 -0.618 0.174 c -0.024 0 0.114 -0.048 0.528 -0.174 c 0.018 0 0.036 0.006 0.048 0.006 c 0.042 0 0.06 -0.012 0.054 -0.024 c -0.006 -0.012 -0.03 -0.018 -0.072 -0.018 c -0.594 0.048 -1.038 0.42 -0.906 0.468 a 0.646 0.646 0 0 1 0.168 -0.036 c 0.078 0 0.042 0.066 -0.114 0.162 c 0.072 0.168 -1.2 0.6 -1.344 0.756 a 0.326 0.326 0 0 1 0.144 -0.054 c 0.096 0 -0.03 0.186 -0.156 0.276 c 0.078 0.072 0.138 0.096 0.186 0.096 c 0.126 0 0.18 -0.174 0.288 -0.228 c 0.024 0.048 0.048 0.072 0.078 0.072 c 0.102 0 0.228 -0.252 0.33 -0.384 c 0.03 0.03 0.066 0.054 0.114 0.054 c 0.096 0 0.24 -0.078 0.468 -0.3 l -0.096 0.012 z m -1.38 1.104 c -0.216 0.132 -0.33 0.186 -0.378 0.186 c -0.09 0 0.03 -0.168 0.138 -0.342 c 0.108 -0.168 0.204 -0.336 0.066 -0.336 c -0.066 0 -0.186 0.036 -0.378 0.132 c -0.522 0.348 -1.404 1.308 -1.794 1.308 h -0.036 c 0.63 -0.462 0.444 -1.368 1.326 -1.602 c 0.87 -0.498 1.464 -0.342 2.238 -0.912 c -0.228 0.114 -0.564 0.24 -0.642 0.24 c -0.048 0 0.024 -0.06 0.336 -0.21 c -0.03 0.006 -0.054 0.012 -0.072 0.012 c -0.21 0 1.38 -0.57 1.458 -0.582 c -0.654 0.09 -1.71 0.636 -1.854 0.636 c -0.018 0 -0.018 -0.006 -0.018 -0.018 c 0.024 -0.018 0.024 -0.03 0 -0.03 c -0.078 0 -0.402 0.108 -0.732 0.216 c -0.324 0.108 -0.654 0.222 -0.726 0.222 c -0.024 0 -0.024 -0.012 0.012 -0.036 c -2.832 1.608 -5.196 4.32 -5.934 7.536 c 0.306 0.702 0.096 2.04 0.6 2.43 c 0.576 0.486 -0.492 1.896 -0.21 2.766 c 0.288 1.572 1.53 2.646 1.662 4.254 c 0.228 1.104 1.062 2.454 1.41 3.156 c 0.264 0.264 0.99 1.026 1.116 1.026 c 0.048 0 0.018 -0.114 -0.174 -0.42 c -0.12 -0.342 -0.816 -1.236 -0.48 -1.236 a 0.225 0.225 0 0 1 0.06 0.006 c -0.414 -0.42 0.918 -0.306 -0.012 -0.876 c -0.108 -0.132 -0.132 -0.174 -0.108 -0.174 c 0.03 0 0.114 0.048 0.21 0.096 a 0.839 0.839 0 0 0 0.318 0.096 c 0.15 0 0.252 -0.102 0.192 -0.474 a 0.141 0.141 0 0 0 0.066 0.012 c 0.156 0 0.102 -0.306 0.114 -0.612 c 0.012 -0.306 0.09 -0.612 0.51 -0.612 c 0.048 0 0.102 0.006 0.156 0.012 c 0.972 -0.528 0.126 -1.986 1.242 -2.52 c -0.042 -1.212 -1.668 -1.272 -2.28 -1.764 a 0.555 0.555 0 0 1 -0.294 0.078 a 0.849 0.849 0 0 1 -0.288 -0.054 c -0.084 -0.024 -0.162 -0.054 -0.216 -0.054 c -0.012 0 -0.024 0 -0.036 0.006 c 1.044 -0.276 0.282 -1.728 -0.582 -1.728 h -0.06 c -0.066 -0.63 -0.39 -0.39 -0.426 -0.912 a 0.327 0.327 0 0 1 -0.162 0.042 c -0.144 0 -0.276 -0.102 -0.39 -0.198 c -0.114 -0.102 -0.21 -0.198 -0.294 -0.198 c -0.066 0 -0.126 0.066 -0.18 0.258 c 0.06 -0.294 0.042 -0.39 -0.018 -0.39 s -0.168 0.102 -0.288 0.204 c -0.114 0.102 -0.246 0.204 -0.348 0.204 h -0.03 c -0.702 -0.498 0.006 -1.38 -0.366 -2.058 c 0.24 -0.258 0.336 -0.696 0.228 -0.696 c -0.054 0 -0.162 0.108 -0.33 0.402 c -0.24 -0.612 0.396 -1.998 0.936 -2.076 c 0.018 0 0.03 -0.006 0.048 -0.006 c 0.096 0 0.192 0.048 0.276 0.15 c 0.048 0.282 -0.072 0.876 -0.024 0.876 c 0.024 0 0.072 -0.12 0.192 -0.432 c 0.156 -0.714 1.248 -1.23 1.362 -1.668 c 0.006 0.006 0.006 0.006 0.012 0.006 c 0.126 0 0.936 -0.714 1.29 -0.792 c 0.138 -0.138 0.234 -0.186 0.306 -0.186 c 0.078 0 0.12 0.06 0.15 0.114 c 0.03 0.06 0.054 0.114 0.084 0.114 c 0.024 0 0.054 -0.036 0.108 -0.138 c -0.186 -0.366 0.294 -0.714 0.162 -0.714 c -0.048 0 -0.192 0.048 -0.486 0.168 a 0.225 0.225 0 0 1 -0.084 0.03 c -0.036 0 0.108 -0.096 0.318 -0.192 s 0.474 -0.192 0.696 -0.192 A 0.42 0.42 0 0 1 9 6.888 c 0.93 -0.222 0.42 -0.528 0.468 -0.528 h 0.012 c 0.264 -0.156 0.186 -0.744 0.576 -1.11 z M 5.898 7.704 c -0.012 0 0.042 -0.078 0.222 -0.3 c 0.372 -0.276 0.672 -0.462 0.33 -0.642 a 3.7 3.7 0 0 0 0.432 -0.228 c -0.006 0.294 -0.252 1.008 -0.384 1.008 c -0.03 0 -0.06 -0.042 -0.072 -0.132 c 0.078 -0.138 0.084 -0.192 0.054 -0.192 c -0.048 0 -0.186 0.12 -0.318 0.246 c -0.132 0.114 -0.252 0.24 -0.264 0.24 z m 0.342 0.162 c -0.162 0 -0.132 -0.102 0.366 -0.204 c 0.216 -0.03 0.048 -0.018 0.306 -0.078 a 1.215 1.215 0 0 1 -0.672 0.282 z m 9.33 -0.606 c 0.072 -0.012 0.126 -0.012 0.168 -0.012 c 0.174 0 0.096 0.072 -0.006 0.144 s -0.228 0.144 -0.156 0.144 c 0.042 0 0.156 -0.024 0.39 -0.09 c 1.182 -0.084 -0.462 -1.086 -0.198 -1.422 L 15.696 6 c -0.486 0.618 0.324 0.63 -0.126 1.26 z m -0.492 0.024 c 0.084 0 0.192 -0.096 0.306 -0.366 c 0.156 -0.186 0.09 -0.21 -0.078 -0.3 c -0.462 0.12 -0.42 0.666 -0.228 0.666 z m 4.14 1.902 c -0.018 0 -0.03 0.006 -0.042 0.012 a 0.603 0.603 0 0 0 0.144 0.024 a 0.258 0.258 0 0 0 -0.102 -0.036 z m 8.058 1.494 c 0.102 0.222 0.156 0.312 0.162 0.312 c 0.042 0 -0.756 -1.944 -1.086 -2.292 c -1.722 -2.832 -4.554 -4.998 -7.782 -5.808 h -0.006 c -0.084 0 0.012 0.042 0.126 0.084 s 0.252 0.084 0.252 0.084 s -0.09 -0.03 -0.366 -0.108 a 4.527 4.527 0 0 0 -0.936 -0.18 c -0.054 0.018 1.314 0.558 2.232 0.84 a 4.513 4.513 0 0 0 -0.702 -0.18 c -0.054 0 0 0.036 0.222 0.132 c -0.27 -0.078 -0.384 -0.114 -0.396 -0.114 c -0.018 0 0.36 0.126 0.714 0.252 c 0.36 0.126 0.702 0.252 0.606 0.252 c -0.024 0 -0.09 -0.012 -0.192 -0.03 c 0.306 0.168 0.414 0.234 0.396 0.234 c -0.03 0 -0.408 -0.18 -0.798 -0.36 c -0.384 -0.18 -0.774 -0.36 -0.828 -0.36 c -0.03 0 0.048 0.06 0.312 0.216 c 0.36 0.156 0.72 0.312 0.618 0.312 a 2.55 2.55 0 0 1 -0.456 -0.108 c 0.6 0.306 -0.426 0.186 -0.078 0.6 c -0.192 -0.18 -0.27 -0.24 -0.288 -0.24 s 0.03 0.072 0.078 0.144 s 0.084 0.144 0.042 0.144 h -0.012 c 0.42 0.456 -0.294 0.048 0.216 0.456 c -0.384 -0.174 -1.038 -0.462 -0.744 -0.462 c 0.072 0 0.21 0.018 0.426 0.066 c -0.39 -0.456 -1.494 -0.474 -1.518 -0.528 c -0.276 0.018 -0.282 0.228 -0.234 0.612 c -0.006 0.606 -0.6 0.618 -0.522 0.966 c 0 -0.006 0.006 -0.006 0.006 -0.006 c 0.012 0 0.018 0.12 0.054 0.246 c 0.042 0.12 0.114 0.246 0.27 0.246 a 0.602 0.602 0 0 0 0.324 -0.126 c 0.186 0.336 0.354 0.456 0.486 0.456 c 0.198 0 0.318 -0.27 0.306 -0.516 c -0.216 -0.12 -0.498 -1.116 -0.186 -1.116 c 0.048 0 0.108 0.024 0.186 0.078 c -0.486 1.194 1.92 0.396 0.558 0.942 c 0.306 0.402 -0.192 0.384 -0.048 0.87 a 2.795 2.795 0 0 1 -0.72 0.126 c -0.336 0 -0.594 -0.144 -0.564 -0.648 c -0.42 0.222 0.42 0.972 -0.414 0.972 h -0.048 c -0.402 0.738 -1.908 0.486 -0.726 1.266 c 0.066 0.342 -0.15 0.402 -0.426 0.402 c -0.072 0 -0.15 -0.006 -0.228 -0.012 c -0.078 -0.006 -0.156 -0.006 -0.228 -0.006 c -0.312 0 -0.534 0.078 -0.342 0.564 c -0.138 0.504 0.186 0.726 0.582 0.726 c 0.48 0 1.068 -0.312 1.11 -0.828 c 0.258 -0.39 0.588 -0.552 0.93 -0.552 c 0.54 0 1.11 0.408 1.482 0.912 c 0.03 0.048 0.054 0.066 0.066 0.066 c 0.03 0 0 -0.12 -0.012 -0.24 c -0.012 -0.096 -0.012 -0.192 0.024 -0.222 c -0.534 -0.15 -0.942 -0.798 -0.762 -0.798 c 0.06 0 0.186 0.072 0.39 0.264 h 0.03 c 0.336 0 0.6 0.264 0.804 0.528 c 0.21 0.264 0.366 0.528 0.504 0.528 c 0.054 0 0.108 -0.048 0.156 -0.156 a 1.001 1.001 0 0 1 -0.114 -0.24 c -0.036 -0.126 -0.036 -0.252 0.126 -0.252 a 0.87 0.87 0 0 1 0.282 0.072 c 0.408 -0.108 -0.258 -1.17 0.282 -1.17 c 0.054 0 0.12 0.012 0.204 0.036 c -0.006 0.186 0.078 0.252 0.156 0.252 c 0.156 0 0.312 -0.222 -0.066 -0.288 c 0.144 -0.138 0.228 -0.192 0.288 -0.192 c 0.21 0 0.042 0.696 0.768 0.696 c 0.246 0.582 -2.136 0.042 -1.374 1.158 c 0.174 0.126 0.39 0.15 0.6 0.15 c 0.066 0 0.126 0 0.186 -0.006 c 0.06 0 0.12 -0.006 0.174 -0.006 c 0.372 0 0.636 0.09 0.474 0.858 a 1.065 1.065 0 0 1 -0.648 0.192 c -0.204 0 -0.408 -0.036 -0.606 -0.072 s -0.39 -0.072 -0.564 -0.072 c -0.27 0 -0.486 0.09 -0.618 0.402 c -0.702 -0.288 -1.626 -0.3 -1.536 -1.17 c -1.224 0.174 -2.502 0.084 -3.402 0.834 c -0.054 1.098 -1.938 1.452 -1.482 2.7 c -0.546 1.152 0.66 2.766 1.89 2.766 c 0.042 0 0.09 0 0.132 -0.006 c 0.672 -0.006 1.35 -0.306 1.944 -0.306 c 0.306 0 0.582 0.078 0.822 0.318 c 0.054 -0.006 0.102 -0.012 0.144 -0.012 c 0.918 0 -0.294 1.458 0.804 1.704 c 0.996 1.032 -0.612 2.094 0.174 3.084 c 0.084 0.774 0.468 1.422 0.468 2.178 c 0.102 0.012 0.198 0.018 0.3 0.018 c 1.266 0 2.058 -1.104 2.802 -1.938 c -0.228 -1.248 1.77 -1.494 1.086 -2.892 c -0.318 -1.53 1.506 -2.436 1.404 -3.966 c 0.018 -0.216 -0.042 -0.282 -0.132 -0.282 s -0.222 0.066 -0.348 0.126 a 0.984 0.984 0 0 1 -0.39 0.126 c -0.15 0 -0.264 -0.102 -0.276 -0.438 c -0.882 -0.822 -1.284 -1.938 -2.106 -2.844 c 1.068 0.516 1.674 1.68 2.166 2.736 a 0.468 0.468 0 0 0 0.132 0.018 c 0.87 0 2.082 -2.082 0.762 -2.586 c -0.072 0.198 -0.168 0.27 -0.282 0.27 c -0.198 0 -0.426 -0.24 -0.588 -0.474 c -0.162 -0.24 -0.246 -0.48 -0.156 -0.48 c 0.06 0 0.192 0.096 0.42 0.348 c 0.258 0.162 0.51 0.204 0.774 0.204 c 0.258 0 0.522 -0.042 0.798 -0.066 c 0.348 0.138 0.498 0.582 0.606 0.582 c 0.018 0 0.042 -0.018 0.06 -0.06 c 0.276 0.66 0.594 1.836 0.882 2.154 c -0.15 -1.008 -0.186 -2.076 -0.444 -3.066 z m -3.348 -1.386 c -0.678 -0.174 -0.9 -1.014 -1.434 -1.5 c -0.006 -0.132 0.192 -0.108 0.144 -0.33 c 0.72 0.222 0.486 0.444 0.42 0.486 c 0.264 0.438 1.002 0.738 0.87 1.344 z M 14.61 4.728 c -0.654 0.192 -0.744 -0.018 -0.63 0.384 c 0.048 0.036 0.138 0.048 0.228 0.048 c 0.318 0.006 0.75 -0.18 0.402 -0.432 z m 9.606 16.53 c 0.858 -0.726 0.966 -1.59 1.008 -2.466 c -0.384 0.75 -1.524 1.578 -0.224 2.208 z m -3.906 -11.7 c -0.006 0.006 -0.006 0.006 -0.006 0.012 c 0.006 0.012 0.012 0.012 0.012 0.012 l -0.006 -0.024 z M 15.36 0 C 6.876 0 0 6.876 0 15.36 s 6.876 15.36 15.36 15.36 s 15.36 -6.876 15.36 -15.36 S 23.844 0 15.36 0 z m 0 29.538 a 14.178 14.178 0 1 1 0 -28.358 a 14.178 14.178 0 0 1 0 28.358 z" stroke="#059669" stroke-width="0.1" fill="#059669"/>
</svg>